<svg width="994" height="1953" xmlns="http://www.w3.org/2000/svg" xmlns:xlink="http://www.w3.org/1999/xlink" xml:space="preserve" overflow="hidden"><defs><clipPath id="clip0"><rect x="1704" y="251" width="994" height="1953"/></clipPath></defs><g clip-path="url(#clip0)" transform="translate(-1704 -251)"><path d="M1752 676 2650 676 2650 1497 1752 1497 1752 676Z" fill="#004990" fill-rule="evenodd"/><path d="M1816 1497 2586 1497 2586 1593 1816 1593 1816 1497Z" fill="#004990" fill-rule="evenodd"/><path d="M1954 660 2448 660 2448 1705 1954 1705 1954 660Z" fill="#004990" fill-rule="evenodd"/><path d="M2233 1912 2233 2018 2169 2018 2169 1912 2233 1912Z" fill="#004990" fill-rule="evenodd"/><path d="M2201 648.161 1800.19 734.018 1800.19 1484.43 2119.79 1704.84 2282.21 1704.84 2601.81 1484.43 2601.81 734.018 2201 648.161ZM2698 1484.43C2698 1516.04 2682.46 1545.63 2656.43 1563.58L2336.84 1783.99C2320.78 1795.07 2301.73 1801 2282.21 1801L2119.79 1801C2100.27 1801 2081.22 1795.07 2065.16 1783.99L1745.57 1563.58C1719.54 1545.63 1704 1516.04 1704 1484.43L1704 734.018C1704 688.675 1735.69 649.493 1780.04 639.992L2180.84 554.135C2194.13 551.288 2207.87 551.288 2221.16 554.135L2621.96 639.992C2666.31 649.493 2698 688.675 2698 734.018L2698 1484.43Z" fill="#FFFFFF" fill-rule="evenodd"/><path d="M2425.87 856 2425.87 984.199 2124.08 984.199 2072.5 1018.5 2072.5 1078.1 2124.08 1112.4 2316.83 1112.4 2458 1206.29 2458 1403.11 2316.83 1497 1976.12 1497 1976.12 1368.8 2277.92 1368.8 2329.5 1334.5 2329.5 1274.9 2277.92 1240.6 2085.17 1240.6 1944 1146.71 1944 949.894 2085.17 856 2425.87 856Z" fill="#FFFFFF" fill-rule="evenodd"/><path d="M2169.12 1112 2169.12 1240 2150 1240 2150 1112 2169.12 1112ZM2252 1112 2252 1240 2232.88 1240 2232.88 1112 2252 1112Z" fill="#004990" fill-rule="evenodd"/><path d="M2169.12 1705 2169.12 1801 2150 1801 2150 1705 2169.12 1705ZM2252 1705 2252 1801 2232.88 1801 2232.88 1705 2252 1705Z" fill="#004990" fill-rule="evenodd"/><path d="M2169.12 564 2169.12 660 2150 660 2150 564 2169.12 564ZM2252 564 2252 660 2232.88 660 2232.88 564 2252 564Z" fill="#004990" fill-rule="evenodd"/><path d="M2257.89 660.064 2268 678 2230 675.862 2230 654 2257.89 660.064ZM2236.45 669.671 2256.51 670.802 2253.72 665.846 2236.45 662.092 2236.45 669.671Z" fill="#004990" fill-rule="evenodd"/><path d="M2252 561.056 2252 578 2233 578 2233 557 2252 561.056ZM2239.33 571.742 2245.67 571.742 2245.67 566.104 2239.33 564.752 2239.33 571.742Z" fill="#004990" fill-rule="evenodd"/><path d="M2150 561.056 2150 578 2169 578 2169 557 2150 561.056ZM2162.67 571.742 2156.33 571.742 2156.33 566.104 2162.67 564.752 2162.67 571.742Z" fill="#004990" fill-rule="evenodd"/><path d="M2144.52 660.247 2130 680 2169 677.794 2169 654 2144.52 660.247ZM2162.55 671.562 2143.47 672.645 2148.31 666.062 2162.55 662.433 2162.55 671.562Z" fill="#004990" fill-rule="evenodd"/><path d="M2202.1 401.027 2276.73 354.259 2311 408.113 2202.69 476 2091 408.372 2124.43 354 2202.1 401.027Z" fill="#004990" fill-rule="evenodd"/><path d="M2329 456.238 2233 520.339 2233 1863.29 2303.72 1905.64 2201 2204 2098.28 1905.64 2169 1863.29 2169 520.339 2073 456.238 2073 251 2201 336.469 2329 251 2329 456.238ZM2175.72 1933.95 2201 2007.37 2226.28 1933.95 2201 1918.81 2175.72 1933.95ZM2201 413.507 2137 370.771 2137 421.935 2201 464.668 2265 421.935 2265 370.771 2201 413.507Z" fill="#FFFFFF" fill-rule="evenodd"/></g></svg>